<svg xmlns="http://www.w3.org/2000/svg" width="193" height="31.084" viewBox="0 0 193 31.084"><defs><style>.a{fill:none;stroke:#fff;opacity:0.7;}.b,.d{fill:#fff;}.c{fill:#fce62d;}.d{font-size:13.2px;font-family:EYInterstate-Regular, EYInterstate;}.e{font-size:8.5px;}</style></defs><g transform="translate(-30 -24.916)"><line class="a" y2="21" transform="translate(80 34.5)"/><g transform="translate(30 24.916)"><path class="b" d="M1406.895,474.924v15.232h12.185v-3.5h-7.617v-2.513h5.508v-3.2h-5.508v-2.514h6.093l-2.021-3.5Z" transform="translate(-1406.631 -459.403)"/><path class="b" d="M1470.63,474.924l-2.588,4.971-2.581-4.971h-5.051l5.322,9.215v6.017h4.554v-6.017l5.329-9.215Z" transform="translate(-1450.097 -459.403)"/><path class="c" d="M1435.57,392.281l-30.075,10.991,30.075-5.32Z" transform="translate(-1405.495 -392.281)"/></g><g transform="translate(-785 -233)"><g transform="translate(70 -38)"><g transform="translate(-32 -4)"><text class="d" transform="translate(879 300)"><tspan x="0" y="13">Intelligent Run</tspan><tspan class="e"><tspan x="0" y="29">Platform</tspan></tspan></text><g transform="translate(576 99.25)"><path class="c" d="M272.9,222.7l8.6,4.277v2.164L271,223.863V208.556l5.749-2.9,11.5,5.754v3.272l-1.951.845v-2.9l-9.544-4.855-3.85,1.952Zm1.951-3.588,4.061,1.953v2.48l-4.061-2Zm6.169-13.461-2.108-1.056,3.584-1.847,11.5,5.806v7.074l-1.9.95v-6.862l-9.6-4.8Zm8.12,18.262a.782.782,0,0,1,0,1.216l-3.533,4.326a.7.7,0,0,1-.605.291.933.933,0,0,1-.607-.291.8.8,0,0,1-.052-1.214l2.583-3.324a.641.641,0,0,0,0-.845l-2.583-3.326a.828.828,0,0,1,0-1.214.969.969,0,0,1,.632-.291.722.722,0,0,1,.632.291Zm4.324,0a.782.782,0,0,1,0,1.216l-3.481,4.326a.72.72,0,0,1-.632.291.958.958,0,0,1-.632-.291.779.779,0,0,1,0-1.214l2.531-3.324a.641.641,0,0,0,0-.845l-2.583-3.326a.828.828,0,0,1,0-1.214.964.964,0,0,1,.632-.291.722.722,0,0,1,.632.291Zm4.273,0a.834.834,0,0,1,0,1.216l-3.535,4.326a.72.72,0,0,1-.632.291.958.958,0,0,1-.632-.291.831.831,0,0,1,0-1.214l2.583-3.324a.641.641,0,0,0,0-.845l-2.583-3.326a.831.831,0,0,1,0-1.214.969.969,0,0,1,.632-.291.72.72,0,0,1,.632.291Z"/></g></g><g transform="translate(-6 21.75)"><rect class="c" width="41" height="2" transform="translate(891 301.25)"/><rect class="c" width="1" height="2" transform="translate(940 301.25)"/><rect class="c" width="5" height="2" transform="translate(933.5 301.25)"/></g></g></g></g></svg>